HIERARCHY
ROOT Hips
{
    OFFSET 0.000000 0.000000 0.000000
    CHANNELS 6 Xposition Yposition Zposition Zrotation Xrotation Yrotation
    JOINT Spine
    {
        OFFSET -0.000000 7.583482 0.000000
        CHANNELS 3 Zrotation Xrotation Yrotation
        JOINT Spine1
        {
            OFFSET -0.000000 19.647881 0.000000
            CHANNELS 3 Zrotation Xrotation Yrotation
            JOINT Neck
            {
                OFFSET -0.000000 19.567190 1.778835
                CHANNELS 3 Zrotation Xrotation Yrotation
                JOINT Head
                {
                    OFFSET -0.000000 12.947408 -1.849630
                    CHANNELS 3 Zrotation Xrotation Yrotation
                    End Site
                    {
                        OFFSET -0.000000 23.120371 0.000000
                    }
                }
            }
            JOINT LeftShoulder
            {
                OFFSET 3.632882 16.008181 -0.342244
                CHANNELS 3 Zrotation Xrotation Yrotation
                JOINT LeftArm
                {
                    OFFSET 15.804684 0.000000 0.000000
                    CHANNELS 3 Zrotation Xrotation Yrotation
                    JOINT LeftForeArm
                    {
                        OFFSET 25.677923 0.000000 0.000000
                        CHANNELS 3 Zrotation Xrotation Yrotation
                        JOINT LeftHand
                        {
                            OFFSET 26.158810 0.000000 0.000000
                            CHANNELS 3 Zrotation Xrotation Yrotation
                            End Site
                            {
                                OFFSET 13.872223 0.000000 0.000000
                            }
                        }
                    }
                }
            }
            JOINT RightShoulder
            {
                OFFSET -3.700243 16.008181 -0.342244
                CHANNELS 3 Zrotation Xrotation Yrotation
                JOINT RightArm
                {
                    OFFSET -15.804684 0.000000 0.000000
                    CHANNELS 3 Zrotation Xrotation Yrotation
                    JOINT RightForeArm
                    {
                        OFFSET -25.677923 0.000000 0.000000
                        CHANNELS 3 Zrotation Xrotation Yrotation
                        JOINT RightHand
                        {
                            OFFSET -26.158810 0.000000 0.000000
                            CHANNELS 3 Zrotation Xrotation Yrotation
                            End Site
                            {
                                OFFSET -13.872223 0.000000 0.000000
                            }
                        }
                    }
                }
            }
        }
    }
    JOINT LeftUpLeg
    {
        OFFSET 9.248149 0.000000 0.000000
        CHANNELS 3 Zrotation Xrotation Yrotation
        JOINT LeftLeg
        {
            OFFSET -0.000000 -43.254459 0.000000
            CHANNELS 3 Zrotation Xrotation Yrotation
            JOINT LeftFoot
            {
                OFFSET -0.000000 -33.301838 0.000000
                CHANNELS 3 Zrotation Xrotation Yrotation
                JOINT LeftToeBase
                {
                    OFFSET -0.000000 -6.011296 13.872223
                    CHANNELS 3 Zrotation Xrotation Yrotation
                    End Site
                    {
                        OFFSET -0.000000 0.000000 3.699259
                    }
                }
            }
        }
    }
    JOINT RightUpLeg
    {
        OFFSET -9.248149 0.000000 0.000000
        CHANNELS 3 Zrotation Xrotation Yrotation
        JOINT RightLeg
        {
            OFFSET -0.000000 -43.254459 0.000000
            CHANNELS 3 Zrotation Xrotation Yrotation
            JOINT RightFoot
            {
                OFFSET -0.000000 -33.301838 0.000000
                CHANNELS 3 Zrotation Xrotation Yrotation
                JOINT RightToeBase
                {
                    OFFSET -0.000000 -6.011296 13.872223
                    CHANNELS 3 Zrotation Xrotation Yrotation
                    End Site
                    {
                        OFFSET -0.000000 0.000000 3.699259
                    }
                }
            }
        }
    }
}
MOTION
Frames:    4
Frame Time:    0.010000
-49.127991    83.146156    -65.518097    -5.804370    -4.118788    177.303757    5.137355    -14.717035    -2.161728    -11.325004    3.609901    -2.467583    -21.766621    21.777328    9.233684    9.575810    -11.790197    10.751087    4.943378    15.316186    0.543590    28.440315    77.874138    -52.860386    -29.285126    11.720824    -129.047852    33.045559    -39.016052    51.079239    -3.544979    23.751774    0.538719    3.909810    50.141117    88.043068    -7.063991    -20.447765    3.325780    -3.882402    -20.103373    -4.770930    -6.947615    0.965105    -0.819320    -10.939175    -0.760404    7.184519    14.534789    -11.751467    4.053801    0.000000    0.000000    0.000000    -23.527802    -19.161686    -22.259695    10.959346    32.596149    10.877291    -3.743367    -4.963016    -28.624607    0.000000    0.000000    0.000000    
-49.111515    83.150085    -65.561356    -5.779853    -4.048123    177.371826    5.139033    -14.761261    -2.189004    -11.324900    3.720448    -2.486115    -21.753183    21.738182    9.221303    9.513057    -11.705447    10.725386    4.938522    15.330914    0.508328    28.761627    77.824524    -53.140488    -29.331753    11.687327    -129.064713    32.970406    -39.200954    51.131641    -3.552615    23.729401    0.563401    3.275641    49.952587    88.680672    -7.268428    -20.220598    3.802945    -4.209456    -19.808929    -5.342817    -6.914269    1.081670    -0.865222    -10.936047    -0.793194    7.238907    14.481406    -11.742160    3.977818    0.000000    0.000000    0.000000    -23.498924    -19.024637    -22.337111    10.910913    32.591724    11.006457    -3.741592    -4.982154    -28.663111    0.000000    0.000000    0.000000    
-49.133049    83.118515    -65.474052    -5.962124    -4.199460    177.130096    5.031440    -14.711280    -2.083939    -11.347712    3.498608    -2.386147    -21.735735    21.739981    9.217508    9.458031    -11.673227    10.706163    4.964503    15.343869    0.489065    29.032263    77.766930    -53.397926    -29.334518    11.677508    -129.076614    32.964195    -39.237728    51.128693    -3.584562    23.677084    0.655851    2.894914    49.834965    89.113045    -7.546350    -20.644602    4.034637    -4.280062    -20.223534    -4.898364    -7.121531    0.823465    -0.658723    -10.898201    -0.713485    7.220696    14.481720    -11.793720    4.030281    0.000000    0.000000    0.000000    -23.682734    -19.450686    -22.194799    10.929523    32.808308    10.962563    -3.784464    -5.020880    -28.690393    0.000000    0.000000    0.000000    
-49.132721    83.117172    -65.479042    -5.987735    -4.205127    177.113403    5.018152    -14.729147    -2.076226    -11.360665    3.496269    -2.377372    -21.709568    21.710047    9.221847    9.379223    -11.587417    10.692724    4.965816    15.349571    0.455650    29.165627    77.736336    -53.496239    -29.337208    11.710871    -129.103271    33.085377    -39.200905    51.160686    -3.593150    23.671206    0.688155    2.564740    49.663193    89.509010    -7.732538    -20.379614    4.538957    -4.734649    -19.869843    -5.703679    -7.149987    0.815793    -0.640662    -10.899257    -0.709488    7.258873    14.522834    -11.806117    3.984971    0.000000    0.000000    0.000000    -23.710253    -19.480425    -22.185215    10.930691    32.849556    10.995217    -3.806691    -5.040704    -28.710020    0.000000    0.000000    0.000000    
